<svg xmlns="http://www.w3.org/2000/svg" xmlns:xlink="http://www.w3.org/1999/xlink" width="500" zoomAndPan="magnify" viewBox="0 0 375 374.999991" height="500" preserveAspectRatio="xMidYMid meet" version="1.0"><defs><clipPath id="b27896099e"><path d="M 170.746094 169.917969 L 204.496094 169.917969 L 204.496094 205.167969 L 170.746094 205.167969 Z M 170.746094 169.917969 " clip-rule="nonzero"/></clipPath><clipPath id="70bf3645f2"><path d="M 217.492188 224.910156 L 243.972656 224.910156 L 243.972656 251.191406 L 217.492188 251.191406 Z M 217.492188 224.910156 " clip-rule="nonzero"/></clipPath><clipPath id="e62d41c80c"><path d="M 153 224.910156 L 179.289062 224.910156 L 179.289062 251.191406 L 153 251.191406 Z M 153 224.910156 " clip-rule="nonzero"/></clipPath><clipPath id="fb70939c7c"><path d="M 95.769531 176 L 107 176 L 107 183 L 95.769531 183 Z M 95.769531 176 " clip-rule="nonzero"/></clipPath><clipPath id="cbed978dd1"><path d="M 186.398438 123.800781 L 279.234375 123.800781 L 279.234375 211.941406 L 186.398438 211.941406 Z M 186.398438 123.800781 " clip-rule="nonzero"/></clipPath><clipPath id="492676f0ee"><path d="M 148.722656 248.722656 L 166.847656 248.722656 L 166.847656 251.191406 L 148.722656 251.191406 Z M 148.722656 248.722656 " clip-rule="nonzero"/></clipPath><clipPath id="13268e36cc"><path d="M 214.472656 248.722656 L 229.933594 248.722656 L 229.933594 251.191406 L 214.472656 251.191406 Z M 214.472656 248.722656 " clip-rule="nonzero"/></clipPath></defs><g clip-path="url(#b27896099e)"><path fill="#000000" d="M 185.613281 219.042969 C 168.675781 219.042969 154.898438 205.265625 154.898438 188.328125 C 154.898438 171.390625 168.675781 157.613281 185.613281 157.613281 C 202.550781 157.613281 216.328125 171.390625 216.328125 188.328125 C 216.328125 205.265625 202.550781 219.042969 185.613281 219.042969 Z M 216.367188 175.335938 C 214.683594 171.363281 212.277344 167.792969 209.214844 164.726562 C 206.148438 161.664062 202.578125 159.257812 198.605469 157.578125 C 194.488281 155.835938 190.121094 154.953125 185.613281 154.953125 C 181.109375 154.953125 176.738281 155.835938 172.621094 157.578125 C 168.648438 159.257812 165.078125 161.664062 162.015625 164.726562 C 158.949219 167.792969 156.542969 171.363281 154.863281 175.335938 C 153.121094 179.453125 152.238281 183.824219 152.238281 188.328125 C 152.238281 192.832031 153.121094 197.203125 154.863281 201.320312 C 156.542969 205.292969 158.949219 208.863281 162.015625 211.929688 C 165.078125 214.992188 168.648438 217.398438 172.621094 219.082031 C 176.738281 220.820312 181.109375 221.703125 185.613281 221.703125 C 190.121094 221.703125 194.488281 220.820312 198.605469 219.082031 C 202.578125 217.398438 206.148438 214.992188 209.214844 211.929688 C 212.277344 208.863281 214.683594 205.292969 216.367188 201.320312 C 218.105469 197.203125 218.988281 192.832031 218.988281 188.328125 C 218.988281 183.824219 218.105469 179.453125 216.367188 175.335938 " fill-opacity="1" fill-rule="nonzero"/></g><path fill="#000000" d="M 201.609375 199.59375 L 186.945312 187.695312 L 186.945312 171.910156 C 186.945312 171.175781 186.347656 170.582031 185.613281 170.582031 C 184.878906 170.582031 184.285156 171.175781 184.285156 171.910156 L 184.285156 188.328125 C 184.285156 188.730469 184.464844 189.109375 184.777344 189.359375 L 199.933594 201.660156 C 200.179688 201.859375 200.476562 201.957031 200.773438 201.957031 C 201.160156 201.957031 201.542969 201.789062 201.804688 201.464844 C 202.269531 200.894531 202.179688 200.058594 201.609375 199.59375 " fill-opacity="1" fill-rule="nonzero"/><path fill="#ffffff" d="M 245.796875 210.050781 L 221.007812 210.050781 C 219.769531 210.050781 218.800781 208.976562 218.933594 207.742188 L 220.554688 192.308594 C 220.605469 191.835938 221.023438 191.457031 221.492188 191.457031 L 231.265625 191.457031 C 232.5625 191.457031 233.75 191.972656 234.566406 192.886719 L 247.3125 207.128906 C 248.277344 208.207031 247.320312 210.050781 245.796875 210.050781 Z M 257.648438 212.113281 L 238.257812 190.441406 C 236.550781 188.539062 234.082031 187.46875 231.390625 187.46875 L 217.652344 187.46875 C 216.488281 187.46875 215.375 187.863281 214.449219 188.523438 L 215.152344 181.859375 C 215.472656 178.8125 213.082031 176.160156 210.019531 176.160156 L 113.242188 176.160156 C 111.382812 176.160156 109.875 177.667969 109.875 179.53125 C 109.875 181.390625 111.382812 182.898438 113.242188 182.898438 L 161.738281 182.898438 C 163.601562 182.898438 165.109375 184.410156 165.109375 186.269531 C 165.109375 188.132812 163.601562 189.640625 161.738281 189.640625 L 120.074219 189.640625 C 118.210938 189.640625 116.703125 191.148438 116.703125 193.011719 C 116.703125 194.871094 118.210938 196.382812 120.074219 196.382812 L 158.402344 196.382812 C 160.261719 196.382812 161.769531 197.890625 161.769531 199.75 C 161.769531 201.613281 160.261719 203.121094 158.402344 203.121094 L 104.472656 203.121094 C 102.613281 203.121094 101.101562 204.628906 101.101562 206.492188 C 101.101562 208.351562 102.613281 209.859375 104.472656 209.859375 L 142.65625 209.859375 C 144.515625 209.859375 146.023438 211.371094 146.023438 213.230469 C 146.023438 215.09375 144.515625 216.601562 142.65625 216.601562 L 119.042969 216.601562 C 117.183594 216.601562 115.675781 218.109375 115.675781 219.972656 C 115.675781 221.832031 117.183594 223.34375 119.042969 223.34375 L 128.75 223.34375 L 127.796875 232.390625 C 127.480469 235.4375 129.867188 238.089844 132.929688 238.089844 L 150.339844 238.089844 C 150.339844 229.394531 157.414062 222.324219 166.105469 222.324219 C 174.796875 222.324219 181.867188 229.394531 181.867188 238.089844 L 215.003906 238.089844 C 215.003906 229.394531 222.074219 222.324219 230.765625 222.324219 C 239.457031 222.324219 246.527344 229.394531 246.527344 238.089844 L 250.625 238.089844 C 254.636719 238.089844 258.234375 234.835938 258.65625 230.820312 L 259.867188 219.289062 C 260.148438 216.597656 259.351562 214.015625 257.648438 212.113281 " fill-opacity="1" fill-rule="nonzero"/><g clip-path="url(#70bf3645f2)"><path fill="#ffffff" d="M 230.765625 243.730469 C 227.652344 243.730469 225.121094 241.199219 225.121094 238.089844 C 225.121094 234.976562 227.652344 232.445312 230.765625 232.445312 C 233.878906 232.445312 236.410156 234.976562 236.410156 238.089844 C 236.410156 241.199219 233.878906 243.730469 230.765625 243.730469 Z M 230.765625 224.984375 C 223.539062 224.984375 217.660156 230.863281 217.660156 238.089844 C 217.660156 245.3125 223.539062 251.191406 230.765625 251.191406 C 237.992188 251.191406 243.867188 245.3125 243.867188 238.089844 C 243.867188 230.863281 237.992188 224.984375 230.765625 224.984375 " fill-opacity="1" fill-rule="nonzero"/></g><g clip-path="url(#e62d41c80c)"><path fill="#ffffff" d="M 166.105469 243.730469 C 162.992188 243.730469 160.460938 241.199219 160.460938 238.089844 C 160.460938 234.976562 162.992188 232.445312 166.105469 232.445312 C 169.214844 232.445312 171.75 234.976562 171.75 238.089844 C 171.75 241.199219 169.214844 243.730469 166.105469 243.730469 Z M 166.105469 224.984375 C 158.878906 224.984375 153 230.863281 153 238.089844 C 153 245.3125 158.878906 251.191406 166.105469 251.191406 C 173.328125 251.191406 179.207031 245.3125 179.207031 238.089844 C 179.207031 230.863281 173.328125 224.984375 166.105469 224.984375 " fill-opacity="1" fill-rule="nonzero"/></g><g clip-path="url(#fb70939c7c)"><path fill="#ffffff" d="M 106.4375 179.53125 C 106.4375 177.667969 104.929688 176.160156 103.066406 176.160156 L 99.140625 176.160156 C 97.277344 176.160156 95.769531 177.667969 95.769531 179.53125 C 95.769531 181.390625 97.277344 182.898438 99.140625 182.898438 L 103.066406 182.898438 C 104.929688 182.898438 106.4375 181.390625 106.4375 179.53125 " fill-opacity="1" fill-rule="nonzero"/></g><path fill="#ffffff" d="M 102.851562 193.011719 C 102.851562 194.871094 104.363281 196.382812 106.222656 196.382812 L 110.148438 196.382812 C 112.011719 196.382812 113.519531 194.871094 113.519531 193.011719 C 113.519531 191.148438 112.011719 189.640625 110.148438 189.640625 L 106.222656 189.640625 C 104.363281 189.640625 102.851562 191.148438 102.851562 193.011719 " fill-opacity="1" fill-rule="nonzero"/><g clip-path="url(#cbed978dd1)"><path fill="#ffffff" d="M 227.929688 123.800781 C 210.890625 123.800781 195.792969 132.105469 186.460938 144.890625 C 195.710938 135.839844 208.375 130.257812 222.34375 130.257812 C 250.675781 130.257812 273.648438 153.226562 273.648438 181.5625 C 273.648438 192.855469 269.996094 203.296875 263.8125 211.769531 C 273.328125 202.457031 279.234375 189.472656 279.234375 175.105469 C 279.234375 146.769531 256.265625 123.800781 227.929688 123.800781 " fill-opacity="1" fill-rule="nonzero"/></g><path fill="#ffffff" d="M 228.179688 179.851562 C 228.179688 181.714844 226.671875 183.222656 224.8125 183.222656 C 222.949219 183.222656 221.441406 181.714844 221.441406 179.851562 C 221.441406 177.992188 222.949219 176.480469 224.8125 176.480469 C 226.671875 176.480469 228.179688 177.992188 228.179688 179.851562 " fill-opacity="1" fill-rule="nonzero"/><path fill="#ffffff" d="M 255.261719 163.925781 C 254.714844 162.875 253.417969 162.472656 252.371094 163.019531 L 227.273438 176.144531 C 228.472656 176.941406 229.261719 178.304688 229.261719 179.851562 C 229.261719 179.882812 229.261719 179.914062 229.261719 179.945312 L 254.355469 166.816406 C 255.40625 166.269531 255.8125 164.972656 255.261719 163.925781 Z M 220.285156 158.519531 C 219.128906 158.765625 218.386719 159.902344 218.632812 161.0625 L 221.90625 176.480469 C 222.683594 175.808594 223.699219 175.402344 224.8125 175.402344 C 225.257812 175.402344 225.691406 175.46875 226.097656 175.589844 L 222.828125 160.171875 C 222.582031 159.015625 221.445312 158.273438 220.285156 158.519531 " fill-opacity="1" fill-rule="nonzero"/><g clip-path="url(#492676f0ee)"><path fill="#ffffff" d="M 166.679688 248.8125 L 166.679688 251.191406 L 148.839844 251.191406 Z M 166.679688 248.8125 " fill-opacity="1" fill-rule="nonzero"/></g><g clip-path="url(#13268e36cc)"><path fill="#ffffff" d="M 229.878906 248.8125 L 229.878906 251.191406 L 214.472656 251.191406 Z M 229.878906 248.8125 " fill-opacity="1" fill-rule="nonzero"/></g></svg>